# xmcd CD database file
#
# Track frame offsets:
#	150
#	26170
#	87584
#	118281
#	149704
#	197752
#	238460
#	272685
#
# Disc length: 4230 seconds
#
# Revision: 0
# Processed by: cddbd v1.5.2PL0 Copyright (c) Steve Scherf et al.
# Submitted via: CDex 1.70beta2
#
DISCID=83108408
DTITLE=Trespass trio with Joe McPhee - Human Encore
DYEAR=2012
DGENRE=Jazz
TTITLE0=A desert on fire, a forest
TTITLE1=Bruder Beda ist nicht mehr
TTITLE2=Xe
TTITLE3=Coimbra, mon amour
TTITLE4=A different Koko
TTITLE5=In our midst
TTITLE6=Human Encore
TTITLE7=A desert on fire, a forest (first day take)
EXTD=YEAR: 2012
EXTT0=
EXTT1=
EXTT2=
EXTT3=
EXTT4=
EXTT5=
EXTT6=
EXTT7=
PLAYORDER=
